<svg preserveAspectRatio="none" width="100%" height="100%" overflow="visible" style="display: block;" viewBox="0 0 17 17" fill="none" xmlns="http://www.w3.org/2000/svg">
<g id="Button / Map Tool / Recenter" clip-path="url(#clip0_0_45)">
<path id="ResetPosition01" d="M8.5 15.5C12.366 15.5 15.5 12.366 15.5 8.5C15.5 4.63401 12.366 1.5 8.5 1.5C4.63401 1.5 1.5 4.63401 1.5 8.5C1.5 12.366 4.63401 15.5 8.5 15.5Z" stroke="var(--stroke-0, #D9D9D9)"/>
<path id="ResetPosition02" d="M17 8H15.59V9H17V8Z" fill="var(--fill-0, #D9D9D9)"/>
<path id="ResetPosition03" d="M9 0H8V2H9V0Z" fill="var(--fill-0, #D9D9D9)"/>
<path id="ResetPosition04" d="M2 8H0V9H2V8Z" fill="var(--fill-0, #D9D9D9)"/>
<path id="ResetPosition05" d="M9 15H8V17H9V15Z" fill="var(--fill-0, #D9D9D9)"/>
<path id="ResetPosition06" d="M8.5 13C10.9853 13 13 10.9853 13 8.5C13 6.01472 10.9853 4 8.5 4C6.01472 4 4 6.01472 4 8.5C4 10.9853 6.01472 13 8.5 13Z" fill="var(--fill-0, #D9D9D9)"/>
</g>
<defs>
<clipPath id="clip0_0_45">
<rect width="17" height="17" fill="white"/>
</clipPath>
</defs>
</svg>
